<svg id="color_line" height="512" viewBox="0 0 74 74" width="512" xmlns="http://www.w3.org/2000/svg" data-name="color line"><path d="m62.6 57.5a21.708 21.708 0 0 1 -8.59 9.19 30.719 30.719 0 0 1 -15.06 4.31h-3.9a30.629 30.629 0 0 1 -15.06-4.31 21.406 21.406 0 0 1 -8.59-9.19 28.746 28.746 0 0 1 -2.72-13.82 54.6 54.6 0 0 1 1.17-10.8c1.41-5.46 5.98-9.97 7.39-11.09 3.5-2.85 7.98-4.03 12.46-4.86.38-.07.81-.13 1.27-.18v-1.49c-.28-2.69-1.22-5.96-3.97-7.56 0 0 4.91-1.11 6.79 2.07 0 0 .32-4.53 3.21-6.77 3.22 2.11 3.22 6.77 3.22 6.77 1.87-3.18 6.78-2.07 6.78-2.07-2.74 1.6-3.68 4.87-3.97 7.56v1.49h-.25c.67.06 1.19.12 1.49.18 4.5.91 8.96 2.01 12.47 4.86 1.41 1.12 6 5.63 7.41 11.09a54.611 54.611 0 0 1 1.18 10.8 29.193 29.193 0 0 1 -2.73 13.82z" fill="#fe7058"/><path d="m62.6 57.5a21.708 21.708 0 0 1 -8.59 9.19 30.719 30.719 0 0 1 -15.06 4.31h-3.9a30.629 30.629 0 0 1 -15.06-4.31 23.086 23.086 0 0 1 -3.7-2.7 30.593 30.593 0 0 0 13.39 3.38h3.9a30.719 30.719 0 0 0 15.06-4.31 21.708 21.708 0 0 0 8.59-9.19 29.193 29.193 0 0 0 2.73-13.82 54.611 54.611 0 0 0 -1.18-10.8c-1.1-4.27-4.15-7.96-6.1-9.9a17.736 17.736 0 0 1 4.06 2.44c1.41 1.12 6 5.63 7.41 11.09a54.611 54.611 0 0 1 1.18 10.8 29.193 29.193 0 0 1 -2.73 13.82z" fill="#ea6453"/><path d="m26.258 64.374a.649.649 0 0 1 -.187-.028c-.329-.1-.656-.2-.981-.308a.65.65 0 0 1 .412-1.233c.312.1.626.2.941.3a.65.65 0 0 1 -.186 1.273z" fill="#fff"/><path d="m15.057 53.723a.65.65 0 0 1 1.271-.27s.494 1.452.73 1.892a16.849 16.849 0 0 0 5.885 6.227.65.65 0 0 1 -.7 1.1 18.126 18.126 0 0 1 -6.373-6.782c-.223-.431-.813-2.167-.813-2.167z" fill="#fff"/><g fill="#323c6b"><path d="m5.667 46.708a.5.5 0 0 1 -.5-.486c-.008-.309-.016-.618-.017-.888a.5.5 0 0 1 .5-.5.5.5 0 0 1 .5.5c0 .262.008.562.017.862a.5.5 0 0 1 -.486.514z"/><path d="m5.707 43.167h-.013a.5.5 0 0 1 -.487-.513 58.739 58.739 0 0 1 .921-8.825.5.5 0 0 1 .985.171 57.644 57.644 0 0 0 -.906 8.675.5.5 0 0 1 -.5.492z"/><path d="m59.743 20.958a.5.5 0 0 1 -.345-.138c-.206-.2-.392-.368-.548-.509a.5.5 0 1 1 .67-.742c.162.146.354.323.568.527a.5.5 0 0 1 -.345.862z"/><path d="m66.351 30.5a.5.5 0 0 1 -.466-.318 25.805 25.805 0 0 0 -4.571-7.353.5.5 0 0 1 .754-.657 26.82 26.82 0 0 1 4.749 7.647.5.5 0 0 1 -.284.647.5.5 0 0 1 -.182.034z"/><path d="m35.05 71.5a31.043 31.043 0 0 1 -15.315-4.38 21.878 21.878 0 0 1 -8.787-9.405 28.891 28.891 0 0 1 -2.776-13.715l.008-.331a55.2 55.2 0 0 1 1.18-10.891c1.431-5.543 5.948-10.093 7.569-11.38 3.648-2.971 8.25-4.14 12.68-4.96.265-.049.554-.093.86-.133v-1.045c-.25-2.382-1.1-5.6-3.721-7.127a.5.5 0 0 1 .141-.92c.192-.042 4.247-.925 6.571 1.334a9.975 9.975 0 0 1 3.234-5.947.5.5 0 0 1 .58-.023 8.419 8.419 0 0 1 3.336 5.9c2.327-2.183 6.31-1.316 6.5-1.273a.5.5 0 0 1 .142.919c-2.6 1.52-3.462 4.744-3.725 7.182v1.008c.368.041.645.08.839.119 4.431.9 9.06 2.017 12.687 4.962 1.624 1.29 6.158 5.851 7.579 11.353a55.243 55.243 0 0 1 1.2 10.921l.006.283a29.335 29.335 0 0 1 -2.785 13.757 22.194 22.194 0 0 1 -8.786 9.4 31.043 31.043 0 0 1 -15.309 4.392zm-6.732-63.467c2.153 1.878 2.908 4.858 3.149 7.175v1.542a.5.5 0 0 1 -.446.5c-.446.048-.863.106-1.232.175-4.3.8-8.756 1.923-12.235 4.756-1.448 1.15-5.872 5.6-7.222 10.827a54.192 54.192 0 0 0 -1.152 10.675l-.008.344a27.935 27.935 0 0 0 2.678 13.255 20.889 20.889 0 0 0 8.394 8.977 30.039 30.039 0 0 0 14.814 4.241h3.892a30.043 30.043 0 0 0 14.8-4.24 21.2 21.2 0 0 0 8.395-8.976 28.363 28.363 0 0 0 2.688-13.3l-.006-.293a54.251 54.251 0 0 0 -1.169-10.706c-1.34-5.188-5.782-9.649-7.231-10.8-3.456-2.806-7.95-3.891-12.258-4.761-.262-.052-.745-.11-1.435-.172a.5.5 0 0 1 -.206-.931v-1.061c.348-3.253 1.43-5.709 3.155-7.224-1.479-.1-3.911.078-5.034 1.988a.5.5 0 0 1 -.931-.253c0-.042-.041-4.119-2.7-6.141-2.424 2.15-2.733 6.134-2.736 6.176a.5.5 0 0 1 -.929.219c-1.125-1.915-3.559-2.087-5.035-1.992z"/></g></svg>