<svg id="Capa_1" enable-background="new 0 0 512 512" height="512" viewBox="0 0 512 512" width="512" xmlns="http://www.w3.org/2000/svg"><g><path d="m459.137 235.04c-48.293 48.293-120.904 53.981-120.904 53.981s5.688-72.611 53.98-120.904c37.713-37.713 90.255-49.443 111.467-52.773 4.823-.757 8.986 3.407 8.229 8.229-3.328 21.212-15.059 73.755-52.772 111.467z" fill="#95d6a4"/><path d="m503.681 115.343c-6.112.959-14.833 2.623-25.042 5.398-5.462 25.271-18.817 67.256-50.407 98.846-26.846 26.846-61.203 40.522-86.427 47.378-2.889 13.364-3.571 22.055-3.571 22.055s72.611-5.688 120.904-53.981c37.713-37.713 49.443-90.255 52.773-111.467.757-4.822-3.407-8.986-8.23-8.229z" fill="#78c2a4"/><path d="m347.945 139.099c0 68.297 47.322 123.662 47.322 123.662s47.322-55.365 47.322-123.662c0-53.334-28.858-98.781-41.503-116.136-2.875-3.945-8.763-3.945-11.638 0-12.645 17.354-41.503 62.802-41.503 116.136z" fill="#95d6a4"/><path d="m401.086 22.963c-2.875-3.945-8.763-3.945-11.638 0-2.64 3.623-5.991 8.486-9.634 14.374 13.807 22.316 31.869 59.563 31.869 101.762 0 42.197-18.062 79.45-31.869 101.766 8.54 13.803 15.453 21.896 15.453 21.896s47.322-55.365 47.322-123.662c0-53.334-28.858-98.782-41.503-116.136z" fill="#78c2a4"/><ellipse cx="203.505" cy="256" fill="#e19974" rx="203.505" ry="256"/><path d="m203.505 0c-5.199 0-10.352.248-15.453.73 105.174 9.934 188.053 120.425 188.053 255.27s-82.879 245.336-188.052 255.27c5.101.482 10.254.73 15.453.73 112.393 0 203.505-114.615 203.505-256s-91.113-256-203.506-256z" fill="#dc8758"/><g><path d="m275.721 363.123c-3.343-2.652-3.902-7.513-1.249-10.855 19.829-24.988 33.792-54.605 40.379-85.647 5.931-27.951 5.931-57.567-.001-85.646-.882-4.175 1.787-8.275 5.962-9.156s8.275 1.788 9.156 5.962c6.375 30.173 6.374 62.003-.002 92.047-7.08 33.367-22.084 65.196-43.39 92.046-2.667 3.36-7.535 3.883-10.855 1.249z" fill="#ecbba3"/></g><g><circle cx="157.147" cy="84.562" fill="#dc8758" r="26.357"/><circle cx="249.863" cy="84.562" fill="#dc8758" r="26.357"/><path d="m249.863 58.205c-5.774 0-11.11 1.862-15.453 5.011 6.605 4.79 10.904 12.563 10.904 21.346s-4.299 16.556-10.904 21.346c4.342 3.149 9.679 5.011 15.453 5.011 14.556 0 26.357-11.8 26.357-26.357s-11.8-26.357-26.357-26.357z" fill="#d77f4a"/><path d="m157.147 58.205c-5.774 0-11.11 1.862-15.453 5.011 6.605 4.79 10.904 12.563 10.904 21.346s-4.299 16.556-10.904 21.346c4.342 3.149 9.679 5.011 15.453 5.011 14.556 0 26.357-11.8 26.357-26.357s-11.801-26.357-26.357-26.357z" fill="#d77f4a"/><circle cx="203.505" cy="161.825" fill="#dc8758" r="26.357"/><path d="m203.505 135.469c-5.774 0-11.11 1.862-15.453 5.011 6.605 4.79 10.904 12.563 10.904 21.346s-4.299 16.556-10.904 21.346c4.342 3.149 9.679 5.011 15.453 5.011 14.556 0 26.357-11.8 26.357-26.357s-11.801-26.357-26.357-26.357z" fill="#d77f4a"/></g><g><circle cx="370.627" cy="370.627" fill="#dc8758" r="141.373"/><path d="m370.627 229.255c-5.223 0-10.377.292-15.453.844 70.807 7.699 125.92 67.673 125.92 140.529s-55.113 132.83-125.92 140.529c5.076.552 10.23.844 15.453.844 78.078-.001 141.373-63.296 141.373-141.374s-63.295-141.372-141.373-141.372z" fill="#d77f4a"/><circle cx="370.627" cy="370.627" fill="#eaf6ff" r="105.383"/><path d="m370.627 265.244c-5.25 0-10.409.39-15.453 1.131 50.875 7.476 89.93 51.301 89.93 104.252s-39.055 96.776-89.93 104.252c5.044.741 10.203 1.131 15.453 1.131 58.201 0 105.383-47.182 105.383-105.383s-47.181-105.383-105.383-105.383z" fill="#d8ecfe"/></g><g><path d="m84.194 398.123c-21.306-26.849-36.31-58.678-43.39-92.046-6.375-30.044-6.376-61.874-.002-92.047.882-4.175 4.981-6.84 9.156-5.962 4.175.882 6.845 4.981 5.962 9.156-5.932 28.079-5.932 57.695-.002 85.646 6.588 31.043 20.55 60.66 40.379 85.647 2.652 3.343 2.093 8.203-1.249 10.855-3.32 2.636-8.184 2.115-10.854-1.249z" fill="#ecbba3"/></g></g></svg>