<?xml version="1.0" encoding="iso-8859-1"?>
<!-- Generator: Adobe Illustrator 19.0.0, SVG Export Plug-In . SVG Version: 6.00 Build 0)  -->
<svg version="1.1" id="Layer_1" xmlns="http://www.w3.org/2000/svg" xmlns:xlink="http://www.w3.org/1999/xlink" x="0px" y="0px"
	 viewBox="0 0 511.999 511.999" style="enable-background:new 0 0 511.999 511.999;" xml:space="preserve">
<ellipse transform="matrix(-0.2877 -0.9577 0.9577 -0.2877 34.58 489.5448)" style="fill:#CC722E;" cx="199.337" cy="231.913" rx="182.239" ry="200.749"/>
<path style="fill:#C15D1A;" d="M93.995,289.674C65.036,193.281,127.64,89.279,233.825,57.378c6.452-1.938,12.915-3.56,19.373-4.885
	c-33.615-7.07-70.148-5.974-106.295,4.885C40.717,89.279-21.887,193.281,7.072,289.674c27.199,90.536,125.5,142.152,225.327,121.658
	C167.264,397.634,113.095,353.254,93.995,289.674z"/>
<path style="fill:#CC722E;" d="M161.414,288.685c0,96.811,78.481,175.292,175.292,175.292s175.292-78.481,175.292-175.292"/>
<ellipse transform="matrix(-0.4255 -0.905 0.905 -0.4255 220.7537 546.3018)" style="fill:#333333;" cx="283.786" cy="203.078" rx="26.51" ry="20.484"/>
<path style="fill:#C15D1A;" d="M235.802,288.685h-74.388c0,96.811,78.481,175.292,175.292,175.292
	c12.764,0,25.205-1.377,37.194-3.968C294.958,442.951,235.802,372.732,235.802,288.685z"/>
<path style="fill:#333333;" d="M365.481,190.59c2.229-6.41,1.784-14.507-1.807-22.135c-6.217-13.254-19.569-20.087-29.81-15.279
	c-10.242,4.82-13.483,19.46-7.254,32.703c0.578,1.217,1.205,2.385,1.891,3.495"/>
<g>
	<ellipse style="fill:#F2F2F2;" cx="336.709" cy="288.685" rx="175.29" ry="99.437"/>
	<path style="fill:#F2F2F2;" d="M473.542,288.685c0,11.797-12.026,26.148-33.595,37.956c-11.387,6.23-25.425,11.748-41.752,15.821
		c-17.906,4.47-38.559,7.193-61.489,7.193c-43.861,0-79.394-9.953-103.241-23.015c-21.569-11.808-33.595-26.159-33.595-37.956
		c0-24.858,53.307-60.971,136.834-60.971c33.293,0,61.778,5.736,84.009,14.206C454.262,254.717,473.542,273.731,473.542,288.685z"/>
</g>
<path style="fill:#CCCCCC;" d="M420.716,241.921c-6.312,54.944-60.374,61.209-78.273,61.77c-1.897-0.038-3.805-0.064-5.736-0.064
	c-43.861,0-79.394,9.953-103.241,23.015c23.846,13.062,59.38,23.015,103.241,23.015s79.394-9.953,103.241-23.015
	c21.569-11.808,33.595-26.159,33.595-37.956C473.542,273.731,454.262,254.717,420.716,241.921z"/>
<ellipse transform="matrix(-0.4255 -0.905 0.905 -0.4255 285.6313 433.9308)" style="fill:#333333;" cx="280.556" cy="126.299" rx="26.51" ry="20.484"/>
<g>
</g>
<g>
</g>
<g>
</g>
<g>
</g>
<g>
</g>
<g>
</g>
<g>
</g>
<g>
</g>
<g>
</g>
<g>
</g>
<g>
</g>
<g>
</g>
<g>
</g>
<g>
</g>
<g>
</g>
</svg>
