<svg id="Capa_1" enable-background="new 0 0 512 512" height="512" viewBox="0 0 512 512" width="512" xmlns="http://www.w3.org/2000/svg"><g><path d="m424.713 157.997-70.709-70.709c-3.905-3.905-3.905-10.237 0-14.142l28.455-28.455c34.497-34.427 97.901-24.41 100.583-23.967 4.225.697 7.538 4.011 8.235 8.235.443 2.682 10.46 66.086-23.96 100.576-.002.002-.005.005-.007.007l-28.455 28.455c-3.905 3.905-10.237 3.905-14.142 0z" fill="#9cdd05"/><path d="m488.482 23.518-99.124 99.124 35.354 35.355c3.905 3.905 10.237 3.905 14.142 0l28.455-28.455.007-.007c34.419-34.49 24.403-97.894 23.96-100.576-.348-2.113-1.35-3.998-2.794-5.441z" fill="#56c225"/><path d="m386.91 210.704-85.614-85.614c-3.905-3.905-3.905-10.237 0-14.142l27.382-27.382c9.428-18.739 15.953-38.716 19.401-59.404l2.634-15.805c.616-3.695 3.246-6.735 6.812-7.879 3.567-1.144 7.474-.197 10.123 2.452 24.399 24.399 39.935 56.723 43.744 91.016l.666 5.995 5.994.665c34.294 3.811 66.618 19.347 91.017 43.745 2.649 2.649 3.595 6.556 2.452 10.123s-4.184 6.196-7.879 6.812l-15.805 2.634c-20.688 3.448-40.665 9.974-59.404 19.401l-27.382 27.382c-3.904 3.906-10.236 3.906-14.141.001z" fill="#56c225"/><path d="m418.054 100.605-5.994-.665-67.957 67.957 42.807 42.807c3.905 3.905 10.237 3.905 14.142 0l27.382-27.382c18.739-9.427 38.716-15.953 59.404-19.401l15.805-2.634c3.695-.616 6.735-3.245 7.879-6.812s.197-7.474-2.452-10.123c-24.398-24.4-56.721-39.936-91.016-43.747z" fill="#009884"/><path d="m291.424 306.137-85.561-85.561c-3.905-3.905-3.905-10.237 0-14.142l42.168-42.168c24.778-28.757 40.02-65.407 42.93-103.243l1.703-22.13c.3-3.894 2.839-7.257 6.501-8.612 3.663-1.355 7.779-.454 10.54 2.308 29.011 29.011 47.033 67.488 50.746 108.346l.885 9.729 9.728.884c40.858 3.714 79.336 21.737 108.346 50.747 2.761 2.761 3.663 6.878 2.308 10.54-1.355 3.663-4.718 6.201-8.612 6.501l-22.13 1.703c-37.836 2.91-74.486 18.152-103.243 42.93l-42.168 42.168c-3.904 3.905-10.236 3.905-14.141 0z" fill="#9cdd05"/><path d="m371.064 151.548-9.728-.884-112.692 112.692 42.781 42.781c3.905 3.905 10.237 3.905 14.142 0l42.168-42.168c28.757-24.778 65.407-40.02 103.243-42.93l22.13-1.702c3.894-.3 7.257-2.839 8.612-6.501 1.355-3.663.454-7.779-2.308-10.54-29.011-29.011-67.489-47.034-108.348-50.748z" fill="#56c225"/><g><g><g><g><g><path d="m351.915 319.646c4.425-21.486 3.593-43.845-2.5-65.001l-12.82-16.732.063-13.267c-5.763-9.972-12.896-19.364-21.418-27.886s-17.913-15.656-27.886-21.418l-13.833 3.74-16.166-16.497c-21.155-6.093-43.515-6.925-65.001-2.5l-12.171 17.583c-.166.163-17.828-7.628-17.828-7.628-13.772 6.457-26.673 15.359-38.033 26.72l-27.886 27.886-6.762 19.49-22.318 9.59-27.886 27.886c-11.361 11.361-20.263 24.261-26.72 38.033l3.385 16.414-13.342 13.586c-4.425 21.486-3.593 43.845 2.5 65.001l12.255 14.752.502 15.247c5.763 9.973 12.896 19.364 21.418 27.886s17.914 15.656 27.886 21.418l15.247 1.916 14.752 10.841c21.155 6.093 43.515 6.925 65 2.5l12.878-14.048 17.121 4.093c13.772-6.457 26.673-15.359 38.033-26.72l27.886-27.886 6.762-16.662 22.318-12.419 27.886-27.886c11.361-11.361 20.263-24.261 26.72-38.033l-5.507-18.536z" fill="#fff04a"/><g><path d="m315.24 387.679c11.361-11.361 20.263-24.261 26.72-38.033l-5.507-18.536 15.462-11.464c4.425-21.486 3.593-43.845-2.5-65.001l-12.82-16.732.063-13.267c-5.763-9.972-12.896-19.364-21.418-27.886l-275.771 275.771c8.522 8.522 17.914 15.656 27.886 21.418l15.247 1.916 14.752 10.841c21.155 6.093 43.515 6.925 65 2.5l12.878-14.048 17.121 4.093c13.772-6.457 26.673-15.359 38.033-26.72l27.886-27.886 6.762-16.662 22.318-12.419z" fill="#ffcd00"/></g><g><path d="m287.354 349.646h54.606c4.523-9.647 7.839-19.723 9.955-30h-64.561v-65h62.061c-2.988-10.373-7.241-20.453-12.757-29.999h-49.304v-49.304c-9.546-5.516-19.627-9.769-30-12.757v62.061h-65v-64.561c-10.277 2.117-20.352 5.433-29.999 9.955v54.606h-65.92l-29.08 29.08v.92 65h-54.606c-4.523 9.647-7.839 19.723-9.955 30h64.562v65h-62.063c2.988 10.373 7.241 20.453 12.757 30h49.305v49.305c9.546 5.516 19.627 9.769 30 12.757v-62.061h65v64.561c10.277-2.117 20.352-5.432 30-9.955v-54.606h65.919l29.08-29.08zm-30-95v65h-65v-65zm-160 0h65v65h-65zm0 160v-65h65v65zm95 0v-65h65v65z" fill="#ffcd00"/></g><g><path d="m287.354 415.565v-65.92h54.606c4.523-9.647 7.839-19.723 9.955-30h-64.561v-65h62.061c-2.988-10.373-7.241-20.453-12.757-29.999h-49.304l-30 30v65h-65l-30 30v65h-65l-30 30v49.305c9.546 5.516 19.627 9.769 30 12.757v-62.061h65v64.561c10.277-2.117 20.352-5.432 30-9.955v-54.606h65.919zm-95-.919v-65h65v65z" fill="#ff9100"/></g></g></g></g></g></g></g></svg>